<?xml version="1.0" standalone="no"?>
<!DOCTYPE svg PUBLIC "-//W3C//DTD SVG 20010904//EN"
 "http://www.w3.org/TR/2001/REC-SVG-20010904/DTD/svg10.dtd">
<svg version="1.0" xmlns="http://www.w3.org/2000/svg"
 width="225.000000pt" height="225.000000pt" viewBox="0 0 225.000000 225.000000"
 preserveAspectRatio="xMidYMid meet">

<g transform="translate(0.000000,225.000000) scale(0.100000,-0.100000)"
fill="#000000" stroke="none">
<path d="M975 2239 c-169 -21 -382 -107 -516 -208 -144 -109 -261 -249 -339
-406 -276 -557 -50 -1230 505 -1505 557 -276 1230 -50 1505 505 276 557 50
1230 -505 1505 -204 101 -422 137 -650 109z m193 -643 c15 -8 118 -106 230
-218 l202 -204 0 -49 0 -49 -207 -207 c-113 -115 -219 -213 -235 -220 -25 -10
-33 -9 -56 8 -18 13 -28 31 -30 53 -3 31 7 44 150 187 l153 153 -373 0 c-311
0 -378 2 -402 15 -52 27 -52 93 0 120 24 13 88 15 402 15 l373 0 -153 153
c-132 132 -152 156 -152 184 0 22 8 38 26 52 32 25 37 25 72 7z"/>
</g>
</svg>
